<?xml version="1.0" encoding="UTF-8" standalone="no"?>
<!-- Created with Inkscape (http://www.inkscape.org/) -->

<svg
   width="56.356251mm"
   height="15.08125mm"
   viewBox="0 0 56.356251 15.08125"
   version="1.1"
   id="svg5"
   sodipodi:docname="govuk-rough.svg"
   inkscape:version="1.1 (c68e22c387, 2021-05-23)"
   xmlns:inkscape="http://www.inkscape.org/namespaces/inkscape"
   xmlns:sodipodi="http://sodipodi.sourceforge.net/DTD/sodipodi-0.dtd"
   xmlns="http://www.w3.org/2000/svg"
   xmlns:svg="http://www.w3.org/2000/svg">
  <sodipodi:namedview
     id="namedview7"
     pagecolor="#ffffff"
     bordercolor="#111111"
     borderopacity="1"
     inkscape:pageshadow="0"
     inkscape:pageopacity="0"
     inkscape:pagecheckerboard="1"
     inkscape:document-units="mm"
     showgrid="false"
     fit-margin-top="0"
     fit-margin-left="0"
     fit-margin-right="0"
     fit-margin-bottom="0"
     inkscape:zoom="4.3145539"
     inkscape:cx="106.38412"
     inkscape:cy="28.392275"
     inkscape:window-width="1920"
     inkscape:window-height="1001"
     inkscape:window-x="-9"
     inkscape:window-y="-9"
     inkscape:window-maximized="1"
     inkscape:current-layer="layer1" />
  <defs
     id="defs2">
    <filter
       style="color-interpolation-filters:sRGB;"
       inkscape:label="Roughen"
       id="filter1411"
       x="0"
       y="0"
       width="1"
       height="1">
      <feTurbulence
         type="fractalNoise"
         numOctaves="1"
         seed="16"
         baseFrequency="0.03 0.05"
         result="turbulence"
         id="feTurbulence1407" />
      <feDisplacementMap
         in="SourceGraphic"
         in2="turbulence"
         scale="2.84431"
         yChannelSelector="G"
         xChannelSelector="R"
         id="feDisplacementMap1409" />
    </filter>
  </defs>
  <g
     inkscape:label="Layer 1"
     inkscape:groupmode="layer"
     id="layer1"
     transform="translate(-237.19687,-83.896873)">
    <rect
       style="fill:#ffffff;stroke-width:2.64583"
       id="rect847"
       width="52.06361"
       height="12.448661"
       x="239.0979"
       y="84.939369" />
    <path
       style="fill:#000000;stroke-width:0.264583;filter:url(#filter1411)"
       d="m 237.01289,91.50314 v -7.540625 h 28.17813 28.17812 v 7.540625 7.540625 h -28.17812 -28.17813 z m 12.59958,2.641314 c 0.43781,-1.132035 0.4814,-1.450689 0.19844,-1.450689 -0.19943,0 -0.3626,0.126089 -0.3626,0.280198 0,0.154109 -0.10659,0.214324 -0.23686,0.133812 -0.13027,-0.08051 -0.30887,0.04126 -0.39688,0.270608 -0.23163,0.603634 -0.20043,0.692159 0.17072,0.484351 0.1819,-0.101848 0.1316,0.02647 -0.11178,0.285148 -0.2482,0.263803 -0.62578,0.399996 -0.8599,0.310159 -0.5219,-0.200275 -0.54851,-0.705943 -0.0371,-0.705943 0.29022,0 0.344,-0.234899 0.22714,-0.992187 -0.0842,-0.545703 -0.18787,-1.033876 -0.23035,-1.084828 -0.17307,-0.207586 -0.64161,0.284893 -0.64161,0.674399 0,0.230031 -0.20836,0.576405 -0.46302,0.769721 -0.44097,0.334745 -0.44097,0.351883 0,0.359897 0.56234,0.01022 0.59814,0.360647 0.0807,0.790079 -0.5409,0.448902 -1.57891,0.237476 -1.68983,-0.344192 -0.0742,-0.389137 0.0195,-0.452818 0.46032,-0.312899 0.43788,0.138978 0.55349,0.06315 0.55349,-0.363023 0,-0.394971 -0.11814,-0.493358 -0.44281,-0.36877 -0.33547,0.12873 -0.40162,0.06258 -0.27289,-0.272888 0.13629,-0.355168 0.008,-0.442809 -0.64792,-0.442809 -0.69697,0 -0.76916,0.05866 -0.48847,0.396875 0.26976,0.325043 0.25168,0.396875 -0.0999,0.396875 -0.2361,0 -0.42927,0.174857 -0.42927,0.388571 0,0.247632 0.15368,0.329597 0.42371,0.225979 0.31178,-0.119644 0.39855,-0.03009 0.32846,0.339033 -0.13025,0.686033 -1.48116,0.845956 -1.72732,0.204483 -0.10277,-0.267806 -0.0461,-0.508987 0.1338,-0.568935 0.45606,-0.15202 0.38163,-0.589131 -0.10031,-0.589131 -0.22687,0 -0.34043,-0.116602 -0.25235,-0.259115 0.22973,-0.371706 -0.36675,-1.376145 -0.69627,-1.17249 -0.15192,0.09389 -0.22145,0.457258 -0.1545,0.807475 0.067,0.350218 0.0186,0.700476 -0.10737,0.778352 -0.37037,0.228898 -0.26264,0.639528 0.16777,0.639528 0.21828,0 0.39688,0.178594 0.39688,0.396875 0,0.218282 -0.22355,0.396875 -0.49677,0.396875 -0.27323,0 -0.64499,-0.178593 -0.82615,-0.396875 -0.22757,-0.274204 -0.23758,-0.396875 -0.0324,-0.396875 0.16334,0 0.29698,-0.191332 0.29698,-0.425182 0,-0.275562 -0.14449,-0.369735 -0.41061,-0.267614 -0.23546,0.09035 -0.34167,0.046 -0.24897,-0.103984 0.0889,-0.143854 -0.0681,-0.261553 -0.34886,-0.261553 -0.49815,0 -0.49693,0.03513 0.0505,1.450689 l 0.56104,1.450689 h 4.10104 4.10104 z m 7.37117,0.780759 c 0.50873,-0.265266 0.82162,-0.311622 0.88194,-0.130661 0.0514,0.154254 0.32169,0.280463 0.60061,0.280463 0.45147,0 0.50712,-0.203231 0.50712,-1.852083 v -1.852084 h -1.45521 c -1.27882,0 -1.45521,0.06414 -1.45521,0.529167 0,0.411574 0.17639,0.529167 0.79375,0.529167 0.47489,0 0.79375,0.138171 0.79375,0.343958 0,0.581864 -0.59511,0.978958 -1.46712,0.978958 -1.14334,0 -1.78004,-0.772599 -1.78004,-2.159992 0,-0.879779 0.14903,-1.240736 0.71229,-1.725237 0.87585,-0.753375 1.21274,-0.764053 2.09949,-0.06654 0.62983,0.495428 0.74679,0.50939 1.25941,0.150339 l 0.5651,-0.395809 -0.69833,-0.647185 c -0.86294,-0.799754 -1.92476,-1.031371 -3.16204,-0.689744 -1.27105,0.350954 -2.09349,1.553412 -2.23039,3.260964 -0.13405,1.672065 0.66546,3.033018 2.06496,3.515041 1.17545,0.404852 1.05354,0.409105 1.96992,-0.06872 z m 17.42485,-0.160712 c 0.36185,-0.573649 0.0309,-1.276986 -0.6009,-1.276986 -0.78069,0 -1.18728,0.909201 -0.64784,1.448646 0.48285,0.482844 0.86941,0.429704 1.24874,-0.17166 z m -9.37231,-0.07471 c 0.86707,-0.448378 1.61004,-1.850642 1.61004,-3.038744 0,-1.044496 -0.83189,-2.683329 -1.59721,-3.146522 -0.71513,-0.432815 -2.65144,-0.460703 -3.42022,-0.04926 -2.09896,1.12333 -2.05889,5.496393 0.0582,6.347536 0.9152,0.367951 2.52413,0.313662 3.34922,-0.11301 z m -3.01524,-1.461418 c -0.29097,-0.321522 -0.47396,-0.936531 -0.47396,-1.592945 0,-1.360803 0.6492,-2.116667 1.81796,-2.116667 1.0696,0 1.69378,0.780023 1.69378,2.116667 0,0.517324 -0.18534,1.205207 -0.41187,1.528628 -0.53473,0.763435 -1.96159,0.798383 -2.62591,0.06432 z m 9.8245,-1.19607 c 1.07596,-3.693659 1.08134,-3.836459 0.14453,-3.836459 -0.71888,0 -0.76097,0.0793 -1.36941,2.579688 l -0.62773,2.579687 -0.64529,-2.579687 c -0.62987,-2.518072 -0.66352,-2.579688 -1.40872,-2.579688 -0.41989,0 -0.76343,0.07153 -0.76343,0.158956 0,0.126967 0.89133,3.307872 1.75745,6.271822 0.10776,0.368756 0.35904,0.459237 1.10219,0.396875 l 0.9626,-0.08078 z m 8.13234,2.789491 c 1.08757,-0.413493 1.48511,-1.546204 1.48511,-4.23156 v -2.39439 h -0.79375 -0.79375 v 2.617526 c 0,2.789671 -0.0722,2.938724 -1.42393,2.938724 -1.02924,0 -1.2219,-0.4881 -1.2219,-3.095625 v -2.460625 h -0.79375 -0.79375 l 0.009,2.447396 c 0.0101,2.637173 0.28799,3.477981 1.34267,4.062543 0.75174,0.416657 2.05921,0.467495 2.98368,0.116011 z m 4.39553,-0.905011 c 0,-0.757893 0.15205,-1.283741 0.4399,-1.521354 0.26068,-0.215184 0.47844,-0.255332 0.5345,-0.09854 0.052,0.145521 0.44961,0.83013 0.8835,1.521354 0.66616,1.061238 0.91706,1.256771 1.6126,1.256771 0.79323,0 0.80928,-0.02201 0.43414,-0.595312 -1.01625,-1.553054 -2.05256,-3.319279 -2.05256,-3.498273 0,-0.109231 0.48734,-0.780672 1.08297,-1.492092 l 1.08297,-1.29349 h -0.89631 c -0.76952,0 -1.04435,0.194553 -1.94286,1.375375 l -1.04656,1.375374 -0.08,-1.375374 c -0.0772,-1.3283 -0.10667,-1.375375 -0.8599,-1.375375 h -0.77992 v 3.439584 3.439583 h 0.79375 c 0.76106,0 0.79375,-0.0477 0.79375,-1.158228 z m -43.50827,-2.306745 c 0.2796,-0.45241 -0.60259,-1.213336 -0.97498,-0.840951 -0.16588,0.165882 -0.23,0.488202 -0.14248,0.716265 0.18311,0.477188 0.85338,0.551976 1.11746,0.124686 z m 9.28816,-0.124686 c 0.0875,-0.228063 0.0234,-0.550383 -0.14248,-0.716265 -0.37239,-0.372385 -1.25458,0.388541 -0.97498,0.840951 0.26408,0.42729 0.93435,0.352502 1.11746,-0.124686 z m -4.7625,-0.264584 c 0.22052,-0.574665 -0.33931,-1.11509 -0.74003,-0.714375 -0.33867,0.338676 -0.12886,1.129035 0.29972,1.129035 0.15466,0 0.3528,-0.186597 0.44031,-0.41466 z m -3.46733,-1.19823 c 0.27961,-0.45241 -0.60259,-1.213336 -0.97497,-0.840951 -0.16589,0.165882 -0.23,0.488202 -0.14249,0.716265 0.18312,0.477188 0.85338,0.551976 1.11746,0.124686 z m 7.12806,-0.371485 c 0,-0.287056 -0.19338,-0.559161 -0.42973,-0.604678 -0.45856,-0.08831 -0.86751,0.614984 -0.60479,1.040079 0.2696,0.43623 1.03452,0.114298 1.03452,-0.435401 z m -3.57646,-0.259057 c 0.23862,-0.287518 0.25232,-0.599244 0.0516,-1.174941 -0.22453,-0.644074 -0.20593,-0.757791 0.10448,-0.638678 0.25239,0.09685 0.37764,-0.03723 0.37764,-0.404255 0,-0.396885 -0.11852,-0.503689 -0.4274,-0.385158 -0.33983,0.130404 -0.39039,0.04738 -0.24676,-0.405179 0.14638,-0.461196 0.0735,-0.569191 -0.38417,-0.569191 -0.45766,0 -0.53055,0.107995 -0.38417,0.569191 0.14364,0.452559 0.0931,0.535583 -0.24676,0.405179 -0.30888,-0.118531 -0.4274,-0.01173 -0.4274,0.385158 0,0.379449 0.12265,0.502104 0.39687,0.396875 0.47084,-0.180678 0.47627,-0.147582 0.12661,0.772098 -0.41769,1.098599 0.37053,1.87898 1.05943,1.048901 z m -1.97263,-0.413992 c 0.0939,-0.151895 0.0218,-0.455527 -0.16009,-0.674737 -0.2894,-0.348704 -0.37891,-0.35043 -0.71554,-0.0138 -0.21162,0.211621 -0.30412,0.515253 -0.20555,0.674738 0.22718,0.367589 0.85756,0.375635 1.08118,0.0138 z m 3.96875,0 c 0.0939,-0.151895 0.0218,-0.455527 -0.16009,-0.674737 -0.2894,-0.348704 -0.37891,-0.35043 -0.71554,-0.0138 -0.21162,0.211621 -0.30412,0.515253 -0.20555,0.674738 0.22718,0.367589 0.85756,0.375635 1.08118,0.0138 z"
       id="path916" />
  </g>
</svg>
